# xmcd
#
# Track frame offsets:
#	150
#	14190
#	33825
#	55315
#	69390
#	83650
#	99160
#	111910
#	127747
#	151060
#	169060
#	182860
#	195285
#	208335
#	220760
#	235247
#
# Disc length: 3343
#
# Revision: 2
# Processed by: cddbd v1.5.1PL0 Copyright (c) Steve Scherf et al.
# Submitted via: dBpowerAMP V4.0
# Normalized: r0:TSWAP
#
DISCID=d00d0d10
DTITLE=Various Artist - Motown Chartbusters Vol 8
DYEAR=1900
DGENRE=Soul
TTITLE0=Stevie Wonder - Superstition
TTITLE1=Gladys Knight and the Pips - Neither One of Us (Wants to be the First to Say Goodbye)
TTITLE2=Temptations - Law of the Land
TTITLE3=Jr Walker and the All Stars - Take Me Girl, I'm Ready
TTITLE4=Jackson 5 - Skywriter
TTITLE5=Diana Ross - Touch Me in the Morning
TTITLE6=Gladys Knight and the Pips - The Look of Love
TTITLE7=Michael Jackson - Morning Glow
TTITLE8=Temptations - Papa Was a Rolling Stone
TTITLE9=Marvin Gaye - Let's Get it On
TTITLE10=Supremes - Bad Weather
TTITLE11=Michael Jackson - Ben
TTITLE12=Stevie Wonder - You are the Sunshine of My Life
TTITLE13=Jackson 5 - Hallelujah Day
TTITLE14=Jr Walker and the All Stars - Way Back Home
TTITLE15=Gladys Knight and the Pips - Help Me Make it Through the Night
EXTD=
EXTT0=
EXTT1=
EXTT2=
EXTT3=
EXTT4=
EXTT5=
EXTT6=
EXTT7=
EXTT8=
EXTT9=
EXTT10=
EXTT11=
EXTT12=
EXTT13=
EXTT14=
EXTT15=
PLAYORDER=
